<?xml version="1.0" encoding="UTF-8"?>
<svg id="Layer_1" xmlns="http://www.w3.org/2000/svg" version="1.1" viewBox="0 0 113.39 113.39">
  <defs>
    <style>
      .st0 { fill: #009582; }
      .st1 { fill: #fff; }
      .st2 { fill: #252259; }
    </style>
  </defs>
  <rect class="st1" x=".19" y=".19" width="113" height="113"/>
  <path class="st0" d="M13.33,23.45h17.65v7.31h-8.16v51.5h8.16v7.35H13.33V23.45Z"/>
  <path class="st2" d="M40.96,38.92h10.65v10.51h-10.65v-10.51ZM40.96,65.25h10.65v10.51h-10.65v-10.51Z"/>
  <path class="st2" d="M73.35,37.02c2.74,6.33,4.11,12.7,4.11,19.12,0,7.05-1.63,14.23-4.88,21.52-1.83,4.08-3.55,7.15-5.16,9.21l-2.49,3.41h-7.4c3.08-5.58,5.23-10.15,6.45-13.71,2.08-6.02,3.12-12.62,3.12-19.79,0-4.59-.37-8.84-1.12-12.73-1.15-5.93-3.19-11.6-6.13-17.02l-2.14-3.94h7.55c3.56,4.97,6.26,9.61,8.11,13.92h-.02Z"/>
  <path class="st0" d="M82.41,82.27h8.16V30.62h-8.16v-7.17h17.65v66.16h-17.65v-7.35h0Z"/>
</svg>
